<?xml version="1.0" encoding="UTF-8" standalone="no"?>
<!DOCTYPE svg PUBLIC "-//W3C//DTD SVG 1.1//EN" "http://www.w3.org/Graphics/SVG/1.1/DTD/svg11.dtd">
<svg width="100%" height="100%" viewBox="0 0 650 750" version="1.1" xmlns="http://www.w3.org/2000/svg" xmlns:xlink="http://www.w3.org/1999/xlink" xml:space="preserve" xmlns:serif="http://www.serif.com/" style="fill-rule:evenodd;clip-rule:evenodd;stroke-linejoin:round;stroke-miterlimit:1.5;">
    <g transform="matrix(1,0,0,1,-175.24,-125)">
        <g transform="matrix(1.10847,0,0,1.10847,-150.151,-110.593)">
            <path d="M586.531,212.54L879.512,381.692L879.512,719.997L586.531,889.15L293.551,719.997L293.551,381.692L586.531,212.54Z" style="fill:rgb(232,231,212);"/>
            <path d="M586.531,212.54L879.512,381.692L879.512,719.997L586.531,889.15L293.551,719.997L293.551,381.692L586.531,212.54ZM306.707,389.288L306.707,712.401L586.531,873.958L866.356,712.401L866.356,389.288L586.531,227.731L306.707,389.288Z" style="fill:rgb(11,11,11);"/>
        </g>
        <g transform="matrix(1.16062,0,0,1.16062,-80.3097,-80.3096)">
            <path d="M578.906,643.694L633.027,683.151L565.824,683.151C565.918,668.393 570.76,654.753 578.906,643.694Z" style="fill:rgb(197,69,20);"/>
        </g>
        <g transform="matrix(1.16062,0,0,1.16062,-80.3097,-80.3096)">
            <path d="M633.027,683.151L578.906,643.694C587.169,632.437 598.843,623.845 612.399,619.432L633.027,683.151Z" style="fill:none;stroke:rgb(11,11,11);stroke-width:4.17px;"/>
        </g>
        <g transform="matrix(1.16062,0,0,1.16062,-80.3097,-80.3096)">
            <path d="M580.191,642.053L634.254,681.468L631.799,684.835L577.727,645.413L579.097,643.413L580.191,642.053Z" style="fill:rgb(11,11,11);"/>
        </g>
        <g transform="matrix(1.16062,0,0,1.16062,-80.3097,-80.3096)">
            <path d="M419.179,524.667L417.828,528.839L284.622,431.725L287.077,428.358L419.179,524.667Z" style="fill:rgb(11,11,11);"/>
        </g>
        <g transform="matrix(1.16062,0,0,1.16062,-80.3097,-80.3096)">
            <path d="M422.34,643.138L423.696,645.098L369.1,684.835L366.648,681.467L421.213,641.752L422.34,643.138Z" style="fill:rgb(11,11,11);"/>
        </g>
        <g transform="matrix(1.16062,0,0,1.16062,-80.3097,-80.3096)">
            <path d="M581.79,524.875L714.396,428.357L716.848,431.726L583.14,529.046L581.79,524.875Z" style="fill:rgb(11,11,11);"/>
        </g>
        <g transform="matrix(1.57984,0,0,1.4554,-258.334,-123.251)">
            <path d="M423.951,543.942L480.417,499.329L537.109,544.193C531.638,552.746 528.429,563.115 528.364,574.288L432.857,574.288C432.79,563.004 429.518,552.54 423.951,543.942Z" style="fill:rgb(220,162,21);"/>
        </g>
        <g transform="matrix(1.57984,0,0,1.4554,-258.334,-123.251)">
            <path d="M541.085,451.396L562.58,523.474C553.117,526.817 544.9,533.171 538.919,541.514L483.017,497.274L541.085,451.396Z" style="fill:rgb(220,162,21);"/>
        </g>
        <g transform="matrix(1.57984,0,0,1.4554,-258.334,-123.251)">
            <path d="M419.64,451.23L477.818,497.272L422.127,541.273C416.058,532.904 407.729,526.562 398.149,523.294L419.64,451.23Z" style="fill:rgb(220,162,21);"/>
        </g>
        <g transform="matrix(1.57984,0,0,1.4554,-258.334,-123.251)">
            <path d="M540.093,448.07L480.419,495.218L420.632,447.904L442.64,374.105L518.035,374.105L540.093,448.07Z" style="fill:rgb(220,162,21);"/>
        </g>
        <g transform="matrix(1.57984,0,0,1.4554,-258.334,-123.251)">
            <path d="M443.631,370.783L465.076,298.874C469.912,300.599 475.078,301.526 480.443,301.526C485.736,301.526 490.836,300.624 495.62,298.943L517.044,370.783L443.631,370.783Z" style="fill:rgb(220,162,21);"/>
        </g>
        <g transform="matrix(1.16062,0,0,1.16062,-80.3097,-80.3096)">
            <path d="M422.511,643.383C430.796,654.504 435.726,668.258 435.819,683.151L367.874,683.151L422.511,643.383Z" style="fill:rgb(35,80,127);"/>
        </g>
        <g transform="matrix(1.56032,0,0,1.56032,-280.399,-189.673)">
            <path d="M538.005,304.698L540.522,306.532C531.025,318.034 516.659,325.369 500.593,325.369C484.528,325.369 470.162,318.034 460.665,306.532L463.181,304.698C472.104,315.435 485.557,322.27 500.593,322.27C515.63,322.27 529.082,315.435 538.005,304.698Z" style="fill:rgb(11,11,11);"/>
        </g>
        <g transform="matrix(1.56032,0,0,1.56032,-280.399,-189.673)">
            <path d="M515.961,321.411C511.117,322.978 505.953,323.82 500.593,323.82C495.162,323.82 489.931,322.956 485.034,321.346L500.487,273.611L515.961,321.411Z" style="fill:rgb(11,11,11);"/>
        </g>
        <g transform="matrix(1.16062,0,0,1.16062,-80.3097,-80.3096)">
            <path d="M611.758,617.45C618.543,615.22 625.789,614.024 633.312,614.024C639.288,614.024 645.089,614.779 650.629,616.201L649.339,620.179C644.208,618.878 638.84,618.191 633.312,618.191C626.236,618.191 619.42,619.317 613.041,621.414L611.758,617.45Z" style="fill:rgb(11,11,11);"/>
        </g>
        <g transform="matrix(1.16062,0,0,1.16062,-80.3097,-80.3096)">
            <path d="M615.492,628.985C604.037,632.848 594.16,640.146 587.086,649.658L578.906,643.694C587.169,632.437 598.843,623.845 612.399,619.432L615.492,628.985Z" style="fill:rgb(11,11,11);stroke:rgb(11,11,11);stroke-width:4.17px;"/>
        </g>
        <g transform="matrix(1.11983,0,0,1.11983,-51.1213,-62.7694)">
            <path d="M689.062,497.08C662.382,486.51 643.505,460.463 643.505,430.041C643.505,415.784 647.651,402.487 654.818,391.307L658.314,393.853C651.665,404.319 647.823,416.735 647.823,430.041C647.823,458.544 665.449,482.962 690.396,492.964L689.062,497.08Z" style="fill:rgb(11,11,11);"/>
        </g>
        <g transform="matrix(1.02047,0,0,1.02315,46.5277,19.5456)">
            <path d="M689.288,390.226L595.998,677.343" style="fill:none;stroke:rgb(197,69,20);stroke-width:9.47px;stroke-dasharray:9.47,9.47;"/>
        </g>
        <g transform="matrix(1.50574,0,0,1.50574,-178.963,-228.727)">
            <path d="M304.416,476.915C323.071,469.528 336.273,451.314 336.273,430.041C336.273,420.098 333.388,410.823 328.401,403.019L331,401.125C336.375,409.467 339.484,419.394 339.484,430.041C339.484,452.74 325.353,472.164 305.408,479.975L304.416,476.915Z" style="fill:rgb(11,11,11);"/>
        </g>
        <g transform="matrix(1.16062,0,0,1.16062,-80.3097,-80.3096)">
            <path d="M450.485,427.958L449.137,432.125L285.85,432.125L285.85,427.958L450.485,427.958Z" style="fill:rgb(11,11,11);"/>
        </g>
        <g transform="matrix(1.16062,0,0,1.16062,-80.3097,-80.3096)">
            <path d="M550.416,427.958L715.337,427.958C716.488,427.958 717.42,428.891 717.42,430.041C717.42,431.156 716.545,432.066 715.444,432.122L715.337,432.125L551.765,432.125L550.416,427.958Z" style="fill:rgb(11,11,11);"/>
        </g>
        <g transform="matrix(1.16852,0,0,1.16852,-82.6851,-85.1746)">
            <path d="M434.907,682.698L367.421,682.698L387.982,619.184C401.607,623.467 413.363,631.986 421.689,643.199L367.421,682.698L434.907,682.698Z" style="fill:rgb(220,162,21);"/>
        </g>
        <g transform="matrix(1.02047,0,0,1.02315,46.5277,19.5456)">
            <path d="M595.998,677.343L294.105,677.343" style="fill:none;stroke:rgb(11,11,11);stroke-width:9.47px;"/>
        </g>
        <path d="M407.963,667.622C394.115,649.141 372.035,637.174 347.182,637.174C340.59,637.174 334.194,638.016 328.09,639.602L326.598,634.999C333.168,633.26 340.068,632.338 347.182,632.338C373.734,632.338 397.31,645.18 412.027,664.986L412.026,664.987C412.318,665.387 412.49,665.88 412.49,666.414C412.49,667.752 411.404,668.839 410.065,668.839C409.167,668.839 408.382,668.349 407.963,667.622Z" style="fill:rgb(11,11,11);"/>
        <g transform="matrix(1.02047,0,0,1.02315,46.5277,19.5456)">
            <path d="M294.105,677.343L200.815,390.226" style="fill:none;stroke:rgb(197,69,20);stroke-width:9.47px;"/>
        </g>
        <g transform="matrix(1.02047,0,0,1.02315,46.5277,19.5456)">
            <path d="M445.051,212.777L689.288,390.226" style="fill:none;stroke:rgb(220,162,21);stroke-width:9.47px;"/>
        </g>
        <g transform="matrix(1.02047,0,0,1.02315,46.5277,19.5456)">
            <path d="M200.815,390.226L445.051,212.777" style="fill:none;stroke:rgb(35,80,127);stroke-width:9.47px;"/>
        </g>
        <g transform="matrix(1.16062,0,0,1.16062,-194.481,-208.589)">
            <circle cx="598.371" cy="610.527" r="226.388" style="fill:none;stroke:rgb(35,80,127);stroke-width:8.33px;stroke-linecap:round;"/>
        </g>
    </g>
</svg>
